<svg width="515" height="407" viewBox="0 0 515 407" fill="none" xmlns="http://www.w3.org/2000/svg">
<g opacity="0.2">
<path fill-rule="evenodd" clip-rule="evenodd" d="M234.442 348.134C233.422 351.946 236.291 355.689 240.234 355.689H274.766C278.709 355.689 281.579 351.946 280.558 348.134L263.292 283.637C261.704 277.706 253.296 277.706 251.708 283.637L234.442 348.134Z" fill="white" fill-opacity="0.1"/>
<path fill-rule="evenodd" clip-rule="evenodd" d="M199.627 389.366C196.97 399.274 187.982 406.164 177.715 406.164H130.745C115.829 406.164 104.973 392.029 108.833 377.635L205.19 18.3722C208.096 7.53539 217.926 0 229.156 0H285.056C296.286 0 306.116 7.53539 309.022 18.3722L405.379 377.635C409.239 392.029 398.383 406.164 383.467 406.164H336.497C326.23 406.164 317.242 399.274 314.585 389.366L267.72 214.629C264.81 203.781 249.402 203.781 246.492 214.629L199.627 389.366Z" fill="white" fill-opacity="0.4"/>
<path fill-rule="evenodd" clip-rule="evenodd" d="M435.862 322.043C432.861 333.255 416.967 333.255 413.966 322.043L379.009 191.463C378.333 188.939 378.333 186.28 379.009 183.756L423.559 17.3424C426.297 7.11304 435.559 0 446.139 0H491.61C506.981 0 518.169 14.5935 514.191 29.4544L435.862 322.043ZM135.933 191.245C136.609 188.721 136.609 186.063 135.933 183.538L91.4414 17.3425C88.7029 7.11305 79.4413 0 68.8606 0H23.3902C8.01896 0 -3.16894 14.5935 0.809429 29.4544L79.0794 321.825C82.0807 333.037 97.9745 333.037 100.976 321.825L135.933 191.245Z" fill="white" fill-opacity="0.4"/>
</g>
</svg>
